<svg width="46" height="44" viewBox="0 0 46 44" fill="none" xmlns="http://www.w3.org/2000/svg">
<path d="M0 10C0 4.47715 4.47715 0 10 0H36C41.5228 0 46 4.47715 46 10V34C46 39.5228 41.5228 44 36 44H10C4.47715 44 0 39.5228 0 34V10Z" fill="#0C8BFD" fill-opacity="0.25"/>
<path d="M16.9151 12.839C20.964 12.4871 25.0358 12.4871 29.0847 12.839L31.0354 13.0086C32.3341 13.1215 33.4463 13.896 34.0225 15.004C34.0963 15.1458 34.041 15.3174 33.9052 15.4015L25.8116 20.4117C24.0758 21.4863 21.8871 21.5088 20.1295 20.4703L11.9818 15.6558C11.8502 15.578 11.7898 15.4179 11.8491 15.2769C12.3763 14.0246 13.5616 13.1305 14.9644 13.0086L16.9151 12.839Z" fill="#0C8BFD"/>
<path d="M11.8425 17.8239C11.641 17.7049 11.384 17.833 11.3605 18.0658C11.0328 21.3151 11.1121 24.5953 11.5985 27.8297C11.8549 29.5349 13.2465 30.8421 14.9644 30.9914L16.9151 31.161C20.964 31.513 25.0358 31.513 29.0847 31.161L31.0355 30.9914C32.7533 30.8421 34.145 29.5349 34.4014 27.8297C34.9019 24.501 34.9713 21.1239 34.6096 17.7818C34.5843 17.5473 34.3229 17.4216 34.1223 17.5457L26.8314 22.0591C24.483 23.5129 21.5217 23.5434 19.1438 22.1383L11.8425 17.8239Z" fill="#0C8BFD"/>
</svg>
