<svg width="76" height="76" viewBox="0 0 76 76" fill="none" xmlns="http://www.w3.org/2000/svg">
<rect x="1" y="1.4198" width="73.1604" height="73.1604" rx="8.39505" fill="#0C8BFD" fill-opacity="0.25" stroke="#0C8BFD" stroke-width="2"/>
<path d="M40.6941 26.2042C39.2205 24.6822 36.7796 24.6822 35.306 26.2042L28.1083 33.6378C27.6949 34.0647 27.4172 34.6044 27.31 35.1889C26.4358 39.9559 26.3713 44.8361 27.1191 49.6245L27.3839 51.3198C27.4675 51.8552 27.9287 52.25 28.4706 52.25H33.5001C33.9143 52.25 34.2501 51.9142 34.2501 51.5V41H41.7501V51.5C41.7501 51.9142 42.0859 52.25 42.5001 52.25H47.5294C48.0714 52.25 48.5326 51.8552 48.6162 51.3198L48.881 49.6245C49.6288 44.8361 49.5643 39.9559 48.6901 35.1889C48.5829 34.6044 48.3052 34.0647 47.8918 33.6378L40.6941 26.2042Z" fill="#0C8BFD"/>
</svg>
