<svg width="40" height="31" viewBox="0 0 40 31" fill="none" xmlns="http://www.w3.org/2000/svg">
<path fill-rule="evenodd" clip-rule="evenodd" d="M18.7031 0.383876C18.1041 0.50077 16.8626 0.833154 15.9441 1.12241C15.0257 1.41167 14.1762 1.69555 14.0564 1.75334C13.9366 1.81099 13.5772 1.95591 13.2577 2.07513C12.9383 2.19434 11.8601 2.63651 10.8618 3.05761C9.86347 3.47887 8.49806 4.08294 7.82763 4.40022L6.6086 4.97699L6.95638 5.24446C7.14762 5.39156 7.36587 5.51339 7.44109 5.51513C7.51645 5.51688 8.0392 5.73861 8.60276 6.00797C9.16646 6.27719 9.84415 6.58765 10.109 6.69772C10.3739 6.80779 11.1561 7.16413 11.8473 7.48983C13.0659 8.0637 13.1175 8.07474 13.5439 7.85286C13.7859 7.72682 14.0056 7.57478 14.0321 7.51496C14.0589 7.45513 14.1569 7.40518 14.2499 7.40416C14.3432 7.40315 14.8093 7.20465 15.2859 6.96302C15.7624 6.72139 16.7426 6.32047 17.464 6.07201C18.4549 5.73077 19.1149 5.604 20.1624 5.55361C21.2801 5.49989 21.7732 5.54766 22.7036 5.80033C23.3386 5.97283 23.9887 6.16611 24.1484 6.22985C24.3082 6.2936 24.8636 6.54627 25.3827 6.79123C25.9018 7.0362 26.5553 7.33533 26.8348 7.45615C27.1143 7.57682 27.8658 7.9137 28.5047 8.2047C29.1436 8.4957 30.1065 8.94149 30.6444 9.19532C31.4796 9.58942 31.6226 9.71183 31.6245 10.0333C31.6261 10.3147 31.5076 10.4682 31.1548 10.6413C30.8951 10.7688 30.3888 11.0019 30.0294 11.1594C29.67 11.317 29.0166 11.6096 28.5773 11.81C28.1381 12.0102 27.3539 12.3509 26.8348 12.5669C26.3157 12.783 25.2375 13.1765 24.4388 13.4414C23.6402 13.7062 22.464 14.0324 21.8251 14.166C20.8409 14.3717 20.5192 14.3822 19.7195 14.2338C19.2004 14.1374 18.3509 13.9232 17.8318 13.7576C17.3127 13.5921 16.8226 13.4102 16.7428 13.3532C16.6629 13.2965 16.4348 13.1999 16.2358 13.1386C16.0369 13.0775 15.4488 12.8344 14.9289 12.5984C14.4091 12.3625 13.5865 11.9798 13.1011 11.7481C12.6156 11.5163 11.9948 11.3282 11.7216 11.3299C11.4483 11.3316 10.9511 11.4574 10.6167 11.6091C10.2624 11.77 9.82281 12.1415 9.5639 12.4991C9.16588 13.0484 9.11927 13.2224 9.11927 14.1583C9.11927 15.0833 9.16821 15.2713 9.54343 15.7893C9.87392 16.2455 10.283 16.5262 11.3948 17.0597C12.1798 17.4364 12.9528 17.8 13.1125 17.8677C13.2723 17.9353 13.7623 18.1313 14.2016 18.303C14.6409 18.4748 15.2289 18.6982 15.5085 18.7997C15.788 18.9012 16.3761 19.0867 16.8154 19.212C17.2546 19.3372 18.0104 19.5419 18.4949 19.6668C18.9932 19.7954 19.976 19.894 20.7587 19.894C21.6579 19.894 22.5179 19.7959 23.2176 19.6132C23.8095 19.4589 24.8817 19.1368 25.6005 18.8975C26.3193 18.6582 27.2668 18.3224 27.7061 18.1512C28.1453 17.98 28.6991 17.7679 28.9369 17.6798C29.1746 17.5915 29.534 17.4333 29.7355 17.3281C29.9371 17.2229 30.1464 17.1365 30.2007 17.1359C30.2551 17.1355 30.7451 16.9328 31.2898 16.6856C31.8345 16.4385 32.5742 16.1038 32.9336 15.9419C33.293 15.7798 34.3385 15.2852 35.2569 14.8425C36.1754 14.3998 37.2948 13.7565 37.7445 13.4131C38.1941 13.0695 38.8149 12.4105 39.124 11.9486C39.6597 11.1479 39.6858 11.0549 39.6852 9.94721C39.6847 8.93917 39.6344 8.70872 39.3042 8.2047C39.095 7.88524 38.6682 7.39516 38.3557 7.11563C38.0432 6.8361 37.5803 6.46045 37.3267 6.28068C37.0734 6.10091 36.8322 5.95396 36.7906 5.95396C36.7493 5.95396 36.2075 5.71901 35.5869 5.43179C34.9661 5.14456 33.9206 4.65448 33.2632 4.34272C32.606 4.03095 32.03 3.77582 31.9833 3.77582C31.9367 3.77582 31.5269 3.60447 31.0729 3.39493C30.6188 3.1854 29.7245 2.7881 29.0855 2.51206C28.4466 2.23587 27.6625 1.91525 27.343 1.79952C27.0236 1.68379 26.3375 1.45421 25.8183 1.2894C25.2992 1.12444 24.7184 0.927684 24.5276 0.851885C24.3368 0.776231 23.5316 0.586296 22.7382 0.429906C21.9447 0.273515 20.9573 0.151395 20.5438 0.158365C20.1303 0.16548 19.3021 0.266838 18.7031 0.383876ZM1.85895 7.2713C1.65929 7.35508 1.34259 7.56665 1.15498 7.74148C0.967511 7.91646 0.676511 8.32087 0.508359 8.64033C0.22099 9.18617 0.205017 9.40863 0.241464 12.336C0.26281 14.0491 0.307389 15.4946 0.340497 15.5481C0.373605 15.6015 0.875738 15.8761 1.45643 16.1582C2.03712 16.4402 3.035 16.9106 3.67392 17.2032C4.31284 17.4959 5.01522 17.8327 5.23492 17.9516L5.63425 18.1679V15.0496C5.63425 12.3571 5.66895 11.8663 5.88836 11.4567C6.0282 11.1957 6.33851 10.796 6.57811 10.5683C6.8177 10.3406 7.14442 10.1257 7.30415 10.0905C7.46388 10.0555 7.78552 10.0089 8.01902 9.987C8.25237 9.96507 8.46292 9.88187 8.48688 9.802C8.5107 9.72214 8.28707 9.54818 7.98983 9.41545C7.69259 9.28288 7.12264 9.02876 6.72332 8.85117C6.32399 8.67344 5.3765 8.23606 4.61778 7.87943C3.85906 7.52265 3.00959 7.20566 2.73006 7.17502C2.45053 7.14424 2.05847 7.18766 1.85895 7.2713ZM9.70011 23.0859V26.1325L10.0631 26.2236C10.2628 26.2737 10.4262 26.373 10.4262 26.4441C10.4262 26.5154 10.4966 26.5737 10.5827 26.5737C10.6688 26.5737 11.208 26.7945 11.7807 27.0643C12.3535 27.3343 13.1838 27.7215 13.626 27.9251C14.0681 28.1287 14.8849 28.464 15.4411 28.6702C15.9973 28.8763 16.583 29.0996 16.7428 29.1661C16.9025 29.2327 17.3599 29.3901 17.7592 29.5159C18.1585 29.6417 18.9793 29.8221 19.583 29.9171C20.411 30.0472 20.9463 30.0495 21.7612 29.9264C22.3554 29.8365 23.2009 29.6568 23.6402 29.5268C24.0795 29.3968 24.7982 29.1707 25.2375 29.0242C25.6768 28.8779 26.3147 28.6587 26.6552 28.5372C26.9955 28.4158 27.3876 28.2564 27.5264 28.1832C27.6651 28.1098 28.3668 27.8082 29.0855 27.5129C29.8043 27.2175 30.7356 26.8153 31.1548 26.619L31.9171 26.2622V23.2959C31.9171 20.5363 31.899 20.3297 31.6557 20.3297C31.512 20.3297 31.3324 20.3885 31.2564 20.4605C31.1806 20.5324 30.465 20.8624 29.6664 21.1938C28.8677 21.5252 28.0836 21.8573 27.9239 21.9318C27.7641 22.0064 27.0454 22.2859 26.3266 22.553C25.6078 22.82 24.6276 23.1531 24.1484 23.2932C23.6692 23.4334 23.0811 23.6118 22.8415 23.69C22.6019 23.7681 21.8505 23.8671 21.1716 23.9101C20.4388 23.9564 19.6719 23.9197 19.2839 23.8198C18.9245 23.7271 18.3364 23.5832 17.977 23.4999C17.6176 23.4167 17.2616 23.2901 17.1856 23.2186C17.1098 23.1472 16.9465 23.0882 16.8226 23.0878C16.6989 23.0872 16.4104 22.9892 16.1817 22.87C15.9528 22.7506 15.6914 22.6508 15.6008 22.6481C15.5101 22.6453 15.1745 22.517 14.855 22.3626C14.5356 22.2082 14.2298 22.0799 14.1755 22.0771C14.1211 22.0744 13.6311 21.8708 13.0864 21.6245C12.5417 21.3782 11.5819 20.9208 10.9533 20.608C10.3248 20.2953 9.78563 20.0393 9.75529 20.0393C9.72494 20.0393 9.70011 21.4102 9.70011 23.0859Z" fill="#0C8BFD"/>
<path d="M13.3687 7.92678L15.2565 6.98292L13.0783 7.34594L13.3687 7.92678Z" fill="#0C8BFD"/>
<path fill-rule="evenodd" clip-rule="evenodd" d="M1.85895 7.27128C1.65929 7.35507 1.34259 7.56664 1.15498 7.74147C0.967511 7.91644 0.676511 8.32085 0.508359 8.64031C0.22099 9.18615 0.205017 9.40862 0.241464 12.336C0.26281 14.0491 0.307389 15.4946 0.340497 15.5481C0.373605 15.6015 0.875738 15.8761 1.45643 16.1582C2.03712 16.4402 3.035 16.9106 3.67392 17.2032C4.31284 17.4959 5.01522 17.8326 5.23492 17.9516L5.63425 18.1679V15.0496C5.63425 12.3571 5.66895 11.8663 5.88836 11.4566C6.0282 11.1957 6.33851 10.7959 6.57811 10.5683C6.8177 10.3406 7.14442 10.1257 7.30415 10.0905C7.46388 10.0555 7.78552 10.0089 8.01902 9.98698C8.25237 9.96506 8.46292 9.88185 8.48688 9.80199C8.5107 9.72212 8.28707 9.54816 7.98983 9.41544C7.69259 9.28286 7.12264 9.02875 6.72331 8.85116C6.32399 8.67342 5.3765 8.23605 4.61778 7.87942C3.85906 7.52264 3.00959 7.20565 2.73006 7.17501C2.45053 7.14422 2.05847 7.18764 1.85895 7.27128Z" fill="#1A2D6B"/>
</svg>
