<svg width="76" height="76" viewBox="0 0 76 76" fill="none" xmlns="http://www.w3.org/2000/svg">
<rect x="1.16504" y="1.41982" width="73.1604" height="73.1604" rx="8.39505" fill="#0C8BFD" fill-opacity="0.25" stroke="#0C8BFD" stroke-width="2"/>
<g clip-path="url(#clip0_214_70)">
<path d="M52.7841 42.5453C52.1565 42.4986 50.8613 43.1996 50.5074 43.3799C49.2455 44.0141 47.4896 45.0089 46.3346 45.8034C46.2545 45.8569 46.1477 45.9303 46.0675 45.9837C45.5468 46.3175 44.9993 46.5379 44.3917 46.6714C41.0401 47.3858 36.1596 47.4592 36.1596 47.4592L35.8725 47.4726C35.6589 47.4859 35.4653 47.3324 35.4385 47.1254C35.4052 46.8984 35.5721 46.6847 35.8124 46.6647L43.0698 45.977C43.871 45.8902 44.5052 45.1425 44.4184 44.3012C44.3316 43.46 43.5572 42.8458 42.756 42.9326L36.2998 42.8524C35.8592 42.8458 35.1581 42.7389 34.7375 42.6121C30.5781 41.397 28.2279 42.532 26.9794 43.0661C26.699 42.6054 26.1716 42.305 25.584 42.345L22.7999 42.532C21.8719 42.5921 21.1775 43.3665 21.2376 44.2612L21.685 50.4436C21.7517 51.3383 22.5529 52.0126 23.4809 51.9458L26.265 51.7589C26.8526 51.7188 27.3333 51.3583 27.5402 50.8642L39.7716 51.3917C41.1336 51.5386 42.4088 51.3717 43.6106 50.7441L43.9578 50.5638L53.2047 45.1558C53.6587 44.8888 53.9792 44.4281 53.9992 43.9207C54.0192 43.2998 53.6654 42.6121 52.7841 42.5453ZM24.5024 50.4837C23.9817 50.4837 23.5544 50.0764 23.5544 49.569C23.5544 49.0616 23.9817 48.6543 24.5024 48.6543C25.0232 48.6543 25.4505 49.0616 25.4505 49.569C25.4505 50.0764 25.0232 50.4837 24.5024 50.4837ZM45.9073 44.6751C45.9207 44.5082 45.9207 44.3346 45.9006 44.161C45.8806 43.9407 45.8272 43.7337 45.7604 43.5334C45.7671 43.5201 45.7738 43.5067 45.7738 43.4934C46.7485 42.9593 48.658 42.0379 49.6996 41.6306C50.2203 41.4237 50.7344 41.437 51.2084 41.7575C50.8346 41.891 50.4874 42.0579 50.1602 42.2182C49.0653 42.7656 47.1358 43.8139 46.1944 44.4748C46.1009 44.5416 46.0008 44.6084 45.9073 44.6751ZM48.6981 41.0097C47.9436 41.3435 46.4948 41.851 45.8071 42.2315L45.3398 42.4852C45.2931 42.5119 45.253 42.5386 45.2129 42.572C45.006 42.325 44.7589 42.118 44.4852 41.9511C45.1261 41.6106 46.5549 41.1499 47.2025 40.8962C47.7233 40.6893 48.224 40.7026 48.6981 41.0097ZM38.3295 25.5469C36.3465 25.5469 34.7442 27.156 34.7442 29.1322C34.7442 31.1085 36.3532 32.7175 38.3295 32.7175C40.3124 32.7175 41.9148 31.1085 41.9148 29.1322C41.9148 27.156 40.3124 25.5469 38.3295 25.5469ZM39.3577 30.5476C39.2041 30.7346 38.9971 30.8681 38.7568 30.9282C38.6499 30.9549 38.6099 31.0083 38.6099 31.1218C38.6166 31.2287 38.6099 31.3355 38.6099 31.4423C38.6099 31.5358 38.5631 31.5892 38.4697 31.5892C38.3562 31.5892 38.2427 31.5892 38.1292 31.5892C38.029 31.5892 37.9823 31.5291 37.9823 31.4356C37.9823 31.3555 37.9823 31.2821 37.9823 31.2019C37.9823 31.0284 37.9756 31.0217 37.8087 30.995C37.6017 30.9616 37.3948 30.9149 37.2011 30.8214C37.0476 30.7479 37.0342 30.7079 37.081 30.5543C37.1143 30.4341 37.1477 30.3206 37.1811 30.2005C37.2212 30.0669 37.2612 30.0469 37.3814 30.1137C37.5951 30.2272 37.8221 30.2873 38.0557 30.314C38.2093 30.334 38.3562 30.3206 38.4964 30.2539C38.7568 30.1404 38.8035 29.8333 38.5765 29.6463C38.5031 29.5862 38.4163 29.5395 38.3228 29.4994C38.0891 29.3993 37.8488 29.3192 37.6351 29.1923C37.2813 28.9787 37.0543 28.6916 37.081 28.2576C37.1077 27.7702 37.3881 27.4631 37.8354 27.3029C38.0224 27.2361 38.0224 27.2361 38.0224 27.0425C38.0224 26.9757 38.0224 26.909 38.0224 26.8489C38.029 26.702 38.0491 26.682 38.1959 26.6753C38.2427 26.6753 38.2827 26.6753 38.3295 26.6753C38.6366 26.6753 38.6366 26.6753 38.6366 26.9824C38.6366 27.2027 38.6366 27.2027 38.8569 27.2361C39.0238 27.2628 39.1841 27.3095 39.3376 27.3763C39.4244 27.4164 39.4578 27.4698 39.4311 27.5633C39.391 27.6968 39.3577 27.8303 39.3109 27.9638C39.2709 28.0907 39.2308 28.104 39.1106 28.0506C38.8703 27.9371 38.6166 27.8837 38.3495 27.8971C38.2827 27.9038 38.2093 27.9104 38.1492 27.9371C37.9222 28.0373 37.8821 28.291 38.0758 28.4446C38.1759 28.5247 38.2894 28.5781 38.4029 28.6315C38.6032 28.7183 38.8102 28.7984 39.0038 28.9052C39.6314 29.2524 39.7916 30.0202 39.3577 30.5476ZM44.5453 29.1322C44.5453 29.6797 44.098 30.127 43.5505 30.127C43.003 30.127 42.5557 29.6797 42.5557 29.1322C42.5557 28.5848 43.003 28.1374 43.5505 28.1374C44.098 28.1374 44.5453 28.5848 44.5453 29.1322ZM34.1099 29.1322C34.1099 29.6797 33.6626 30.127 33.1151 30.127C32.5677 30.127 32.1203 29.6797 32.1203 29.1322C32.1203 28.5848 32.5677 28.1374 33.1151 28.1374C33.6626 28.1374 34.1099 28.5848 34.1099 29.1322ZM46.141 23.2836H30.518C29.6166 23.2836 28.8822 24.018 28.8822 24.9194V33.3451C28.8822 34.2464 29.6166 34.9808 30.518 34.9808H46.141C47.0423 34.9808 47.7767 34.2464 47.7767 33.3451V24.9194C47.7767 24.018 47.0423 23.2836 46.141 23.2836ZM46.3813 31.7761C46.2478 31.7427 46.1143 31.7227 45.9741 31.7227C45.0594 31.7227 44.3183 32.4638 44.3183 33.3785C44.3183 33.4452 44.325 33.5187 44.3316 33.5855H32.2004C32.2205 33.4853 32.2271 33.3852 32.2271 33.2783C32.2271 32.3637 31.4861 31.6226 30.5714 31.6226C30.4712 31.6226 30.3778 31.6292 30.2776 31.6493V26.6152C30.3711 26.6352 30.4712 26.6419 30.5714 26.6419C31.4861 26.6419 32.2271 25.9008 32.2271 24.9861C32.2271 24.8793 32.2205 24.7792 32.2004 24.679H44.365C44.3316 24.8059 44.3116 24.9461 44.3116 25.0863C44.3116 26.001 45.0527 26.742 45.9674 26.742C46.1076 26.742 46.2478 26.722 46.3747 26.6886V31.7761H46.3813ZM28.9089 36.7902C28.9089 36.4029 29.2227 36.0891 29.61 36.0891H47.0824C47.4696 36.0891 47.7834 36.4029 47.7834 36.7902C47.7834 37.1774 47.4696 37.4912 47.0824 37.4912H29.6033C29.2227 37.4912 28.9089 37.1774 28.9089 36.7902ZM28.9089 39.3272C28.9089 38.94 29.2227 38.6262 29.61 38.6262H47.0824C47.4696 38.6262 47.7834 38.94 47.7834 39.3272C47.7834 39.7145 47.4696 40.0283 47.0824 40.0283H29.6033C29.2227 40.0283 28.9089 39.7145 28.9089 39.3272Z" fill="#0C8BFD"/>
</g>
<defs>
<clipPath id="clip0_214_70">
<rect width="32.766" height="32.766" fill="white" transform="translate(21.234 21.234)"/>
</clipPath>
</defs>
</svg>
