<svg width="76" height="76" viewBox="0 0 76 76" fill="none" xmlns="http://www.w3.org/2000/svg">
<rect x="1.08252" y="1.41982" width="73.1604" height="73.1604" rx="8.39505" fill="#0C8BFD" fill-opacity="0.25" stroke="#0C8BFD" stroke-width="2"/>
<path d="M35 25.625C31.8934 25.625 29.375 28.1434 29.375 31.25C29.375 34.3566 31.8934 36.875 35 36.875C38.1066 36.875 40.625 34.3566 40.625 31.25C40.625 28.1434 38.1066 25.625 35 25.625Z" fill="#0C8BFD"/>
<path d="M29 39.875C25.8934 39.875 23.375 42.3934 23.375 45.5V47.2824C23.375 48.4123 24.1938 49.3756 25.3089 49.5577C28.625 50.0991 31.9751 50.3608 35.3241 50.3427C35.5583 50.3414 35.6999 50.0824 35.5853 49.8782C34.7349 48.3616 34.25 46.6124 34.25 44.75C34.25 43.5694 34.4449 42.4343 34.8042 41.3751C34.8717 41.176 34.7272 40.9644 34.5173 40.955C33.5395 40.9116 32.5662 40.7361 31.6244 40.4286L30.3261 40.0047C30.063 39.9188 29.788 39.875 29.5113 39.875H29Z" fill="#0C8BFD"/>
<path d="M45.875 42.5C45.875 41.8787 45.3713 41.375 44.75 41.375C44.1287 41.375 43.625 41.8787 43.625 42.5V45.1591C43.625 45.519 43.7972 45.8572 44.0883 46.0689L45.5883 47.1598C46.0908 47.5253 46.7944 47.4142 47.1598 46.9117C47.5253 46.4092 47.4142 45.7056 46.9117 45.3402L45.875 44.5862V42.5Z" fill="#0C8BFD"/>
<path fill-rule="evenodd" clip-rule="evenodd" d="M44.75 53C49.3064 53 53 49.3063 53 44.75C53 40.1937 49.3064 36.5 44.75 36.5C40.1937 36.5 36.5 40.1937 36.5 44.75C36.5 49.3063 40.1937 53 44.75 53ZM44.75 50.75C48.0637 50.75 50.75 48.0637 50.75 44.75C50.75 41.4363 48.0637 38.75 44.75 38.75C41.4363 38.75 38.75 41.4363 38.75 44.75C38.75 48.0637 41.4363 50.75 44.75 50.75Z" fill="#0C8BFD"/>
</svg>
